<svg width="842" height="842" viewBox="0 0 842 842" fill="none" xmlns="http://www.w3.org/2000/svg">
<rect width="842" height="842" fill="#B0B2DD"/>
<ellipse cx="451.259" cy="675.284" rx="172.347" ry="10.525" fill="#66659B"/>
<path d="M252.828 262.791C249.073 263.002 243.075 263.945 251.024 259.15C264.954 250.73 300.536 174.543 418.806 170.577C537.076 166.611 574.999 220.756 589.075 237.173C603.802 254.306 619.082 271.081 623.211 293.074C627.339 315.066 610.207 353.46 610.207 353.46C607.635 364.405 606.224 375.591 605.997 386.831C605.997 403.233 608.354 471.194 583.614 529.386C559.931 584.864 500.877 561.717 497.48 560.482C492.083 558.466 469.993 535.466 473.715 502.078C477.437 468.691 478.819 435.108 478.819 435.108C478.819 435.108 479.924 385.791 464.027 361.198C448.13 336.604 450.861 316.464 454.095 309.003C457.33 301.542 466.774 278.347 466.774 278.347C466.774 278.347 488.377 325.486 486.898 337.092C485.418 348.698 583.549 341.318 583.549 341.318C583.549 341.318 602.177 335.109 603.428 317.456C604.68 299.803 590.75 251.868 554.469 228.753C518.188 205.639 497.008 191.92 445.025 203.282C393.042 214.644 399.365 272.771 399.365 272.771C399.365 272.771 405.64 289.855 410.614 293.22C410.614 293.22 414.564 302.193 403.218 299.722C391.872 297.251 388.865 276.071 382.086 270.772C370.529 261.637 371.618 263.717 333.485 262.921C287.37 262.027 265.377 262.092 252.828 262.791Z" fill="white"/>
<path d="M466.513 278.655C466.513 278.655 437.564 239.221 437.385 234.377C437.206 229.533 431.793 209.589 458.63 207.914C485.466 206.24 508.012 206.972 534.101 218.724C560.19 230.476 564.823 236.458 564.823 236.458C564.823 236.458 593.691 257.719 603.054 305.476C603.054 305.476 608.044 322.869 597.235 332.735C597.235 332.735 590.733 339.026 583.597 341.285C583.597 341.285 526.201 344.975 515.879 343.496C515.879 343.496 499.316 342.813 495.106 341.74C490.896 340.668 488.1 340.538 486.978 337.774C486.978 337.774 484.507 321.909 482.004 315.895C479.306 309.475 468.675 281.63 466.513 278.655Z" fill="white"/>
<path d="M247.074 262.385C247.074 262.385 227.081 273.113 231.551 271.91C241.401 269.26 261.59 269.959 280.315 269.781L340.458 270.333C340.458 270.333 382.721 273.194 382.444 331.094C382.168 388.993 380.705 528.882 380.705 528.882C380.705 528.882 369.847 568.723 337.548 568.723C305.25 568.723 242.328 566.984 242.328 566.984C236.812 566.66 231.408 565.298 226.398 562.969C219.571 559.36 242.263 575.973 242.263 575.973C242.263 575.973 334.07 580.573 364.011 578.834C364.011 578.834 377.795 577.647 387.841 563.245C390.591 559.328 392.729 555.014 394.18 550.453C396.83 542.471 407.737 541.675 408.484 543.235C408.919 543.642 409.234 544.16 409.395 544.734C409.555 545.307 409.555 545.913 409.395 546.486C409.395 546.486 418.936 532.572 419.31 519.65C419.684 506.727 418.676 309.426 418.676 309.426C418.676 309.426 416.189 298.877 410.549 293.285C410.549 293.285 413.41 300.616 406.144 300.242C398.878 299.868 394.587 291.903 394.587 291.903C394.587 291.903 387.288 275.892 386.069 274.218C384.85 272.544 378.055 265.554 373.211 263.896C368.367 262.238 294.067 263.019 276.674 262.466C259.281 261.913 247.675 262.791 247.074 262.385Z" fill="#B0B2DD"/>
<path d="M231.453 271.698C231.453 271.698 197.155 288.23 195.676 318.61C194.197 348.99 193.433 522.852 193.433 522.852C193.433 522.852 195.351 546.34 226.349 563.294C226.349 563.294 234.005 568.544 255.932 568.008L332.769 569.373C332.769 569.373 366.449 575.046 381.241 528.834L382.98 331.045C382.98 331.045 385.435 276.412 340.539 270.333L280.396 269.78L253.332 269.667C253.332 269.667 234.947 269.797 231.453 271.698Z" fill="#66659B"/>
<path d="M207.218 329.484V509.506C207.218 509.506 208.063 533.108 236.802 532.848C265.54 532.588 322.237 532.848 322.237 532.848C322.237 532.848 342.978 530.134 343.449 510.368C343.921 490.602 342.523 329.484 342.523 329.484C342.523 329.484 339.272 312.449 319.766 311.897C300.26 311.344 229.942 311.897 229.942 311.897C229.942 311.897 208.616 314.904 207.218 329.484Z" fill="#B0B2DD"/>
<path d="M418.789 329.972C417.164 328.704 413.913 325.762 404.388 326.998C394.862 328.233 386.41 342.553 385.76 346.276C385.109 349.998 384.362 366.692 385.191 369.666C386.02 372.641 389.758 387.742 403.071 392.033C416.384 396.324 424.202 384.068 427.534 379.273C432.091 373.037 434.296 365.391 433.76 357.687C433.337 347.804 429.127 337.791 418.789 329.972Z" fill="#66659B"/>
<path d="M525.159 521.925C541.417 521.925 554.597 506.242 554.597 486.896C554.597 467.55 541.417 451.867 525.159 451.867C508.901 451.867 495.722 467.55 495.722 486.896C495.722 506.242 508.901 521.925 525.159 521.925Z" fill="#66659B"/>
<path d="M421.488 626.801C421.488 626.801 458.143 597.461 477.486 532.865C477.486 532.865 485.516 552.371 495.708 558.872C505.9 565.374 533.712 567.179 540.945 564.936C548.178 562.692 562.076 559.604 577.551 540.927C577.551 540.927 565.441 586.815 546.667 612.546C527.892 638.277 509.443 646.876 491.595 647.77C473.748 648.664 469.765 650.647 447.008 643.381C447.008 643.381 429.794 636.132 421.488 626.801Z" fill="#B0B2DD"/>
<path d="M525.777 571.128C520.201 567.877 499.932 581.938 509.132 590.634C521.924 595.478 538.439 578.703 525.777 571.128Z" fill="#66659B"/>
<path d="M505.524 607.458C497.055 603.427 478.297 615.585 487.497 624.314C497.673 628.752 513.651 611.294 505.524 607.458Z" fill="#66659B"/>
<path d="M480.799 637.838C473.289 634.116 449.574 635.709 458.514 643.462C467.47 647.412 486.96 640.91 480.799 637.838Z" fill="#66659B"/>
<path d="M421.163 625.729C423.179 627.761 447.886 657.344 502.047 645.446C555.395 633.742 575.047 543.463 575.047 543.463C580.671 535.565 585.056 526.855 588.051 517.634C592.147 503.834 601.315 473.242 602.095 455.183C602.876 437.124 605.493 427.81 605.574 390.164C605.574 390.164 604.355 376.477 610.141 353.46C610.141 353.46 613.392 411.831 612.352 434.344C611.312 456.857 611.182 488.31 598.633 533.905C586.084 579.5 572.625 612.562 544.618 637.318C516.611 662.074 480.916 670.088 470.561 671.762C460.207 673.437 437.922 679.337 376.934 668.966C315.945 658.596 275.39 614.497 275.39 614.497C275.39 614.497 251.853 589.74 242.197 575.973C242.197 575.973 338.621 579.988 355.981 578.963C373.341 577.939 380.266 573.047 387.515 563.651C387.515 563.651 392.766 555.199 393.172 551.915C393.172 551.915 395.968 541.821 406.404 542.244C416.839 542.666 397.463 569.081 397.463 569.081C397.463 569.081 392.652 597.039 421.163 625.729Z" fill="white"/>
<path d="M407.736 428.184C407.736 428.184 397.219 428.379 397.024 436.848C396.829 445.316 396.845 505.345 396.845 505.345C396.845 505.345 399.365 514.302 406.078 514.204C407.978 514.166 409.814 513.511 411.309 512.339C412.805 511.166 413.878 509.539 414.368 507.702V433.694C414.068 432.152 413.244 430.76 412.035 429.756C410.826 428.752 409.307 428.196 407.736 428.184V428.184Z" fill="#66659B"/>
<path d="M407.736 404.923H404.518V411.474H407.736V404.923Z" fill="#66659B"/>
<path d="M495.058 341.74C495.058 341.74 481.875 278.639 457.087 252.924C432.298 227.209 470.968 224.901 480.006 224.966C501.137 225.112 526.219 227.762 557.168 259.442C557.168 259.442 576.543 278.444 587.532 335.108C587.878 336.496 587.878 337.947 587.532 339.335C587.044 342.309 559.232 342.586 559.232 342.586C559.232 342.586 521.7 344.211 517.457 343.772C513.215 343.333 496.131 342.472 495.058 341.74Z" fill="#B0B2DD"/>
<path d="M333.387 262.612C286.931 262.889 279.112 263.181 252.828 262.791C249.073 262.791 243.075 263.945 251.024 259.15" fill="white"/>
<path d="M317 332.982V326.982H327V332.982H317H317ZM332 327.482C332.276 327.482 332.512 327.58 332.707 327.775C332.902 327.97 333 328.206 333 328.482V331.482C333 331.758 332.902 331.994 332.707 332.189C332.512 332.385 332.276 332.482 332 332.482V333.732C332 334.076 331.878 334.37 331.633 334.615C331.388 334.86 331.094 334.982 330.75 334.982H316.25C315.906 334.982 315.612 334.86 315.367 334.615C315.122 334.37 315 334.076 315 333.732V326.232C315 325.888 315.122 325.594 315.367 325.349C315.612 325.105 315.906 324.982 316.25 324.982H330.75C331.094 324.982 331.388 325.105 331.633 325.349C331.878 325.594 332 325.888 332 326.232V327.482V327.482ZM332 331.482V328.482H331V326.232C331 326.159 330.977 326.099 330.93 326.052C330.883 326.006 330.823 325.982 330.75 325.982H316.25C316.177 325.982 316.117 326.006 316.07 326.052C316.023 326.099 316 326.159 316 326.232V333.732C316 333.805 316.023 333.865 316.07 333.912C316.117 333.959 316.177 333.982 316.25 333.982H330.75C330.823 333.982 330.883 333.959 330.93 333.912C330.977 333.865 331 333.805 331 333.732V331.482H332V331.482Z" fill="#424242"/>
<path d="M265.952 415.432C273.188 415.432 276.5 408.772 276.5 402.4C276.5 396.028 273.188 389.404 265.952 389.404C258.752 389.404 255.44 396.028 255.44 402.4C255.44 408.772 258.752 415.432 265.952 415.432ZM261.848 402.4C261.848 398.728 263.144 395.812 265.952 395.812C268.796 395.812 270.092 398.728 270.092 402.4C270.092 406.108 268.796 409.024 265.952 409.024C263.144 409.024 261.848 406.108 261.848 402.4ZM286.329 406.612L280.641 415H287.409L295.689 402.868C296.553 401.644 297.129 399.808 297.129 398.26C297.129 393.364 293.133 389.404 288.273 389.404C283.377 389.404 279.381 393.364 279.381 398.26C279.381 402.472 282.369 405.784 286.329 406.612ZM285.465 398.26C285.465 396.712 286.725 395.488 288.273 395.488C289.785 395.488 291.045 396.712 291.045 398.26C291.045 399.808 289.785 401.032 288.273 401.032C286.725 401.032 285.465 399.808 285.465 398.26ZM264.116 462.432C268.796 462.432 272.612 458.904 272.612 454.224C272.612 451.596 271.352 449.652 269.408 448.464C270.776 447.312 271.64 445.692 271.64 443.676C271.64 439.356 268.508 436.404 263.972 436.404C260.156 436.404 257.24 439.032 256.628 442.74L261.776 443.46C262.028 442.524 262.748 441.84 263.972 441.84C265.268 441.84 266.204 442.812 266.204 444C266.204 445.332 265.304 446.16 263.792 446.16H261.668V451.452H263.792C265.484 451.452 266.528 452.46 266.528 453.9C266.528 455.232 265.628 456.348 264.116 456.348C262.496 456.348 261.524 455.412 261.38 454.224L255.44 456.024C256.304 459.804 259.724 462.432 264.116 462.432ZM285.64 462.432C292.876 462.432 296.188 455.772 296.188 449.4C296.188 443.028 292.876 436.404 285.64 436.404C278.439 436.404 275.128 443.028 275.128 449.4C275.128 455.772 278.439 462.432 285.64 462.432ZM281.536 449.4C281.536 445.728 282.832 442.812 285.64 442.812C288.484 442.812 289.78 445.728 289.78 449.4C289.78 453.108 288.484 456.024 285.64 456.024C282.832 456.024 281.536 453.108 281.536 449.4Z" fill="#424242"/>
<path d="M220.826 332.886V335H227.378V332.76H224.354C225.95 331.136 227.042 330.17 227.042 328.238C227.042 326.25 225.712 325.046 223.78 325.046C222.254 325.046 221.008 325.97 220.56 327.678L222.856 328.294C223.01 327.664 223.374 327.412 223.78 327.412C224.368 327.412 224.676 327.79 224.676 328.322C224.676 329.428 223.29 330.688 220.826 332.886ZM231.727 335.168C233.617 335.168 235.171 333.614 235.171 331.71C235.171 329.82 233.743 328.574 231.853 328.574C231.643 328.574 231.433 328.602 231.223 328.644L231.349 327.566H234.499V325.2H229.515L228.913 330.562L230.887 331.038C231.055 330.814 231.363 330.632 231.727 330.632C232.357 330.632 232.805 331.122 232.805 331.71C232.805 332.312 232.357 332.802 231.727 332.802C231.167 332.802 230.775 332.48 230.635 332.06L228.367 332.746C228.815 334.146 230.145 335.168 231.727 335.168ZM236.856 332.018H242.358V329.638H236.856V332.018ZM245.437 335H247.929V325.2H245.941L243.337 326.432L244.107 328.462L245.437 327.86V335ZM253.277 335.168C256.091 335.168 257.379 332.578 257.379 330.1C257.379 327.622 256.091 325.046 253.277 325.046C250.477 325.046 249.189 327.622 249.189 330.1C249.189 332.578 250.477 335.168 253.277 335.168ZM251.681 330.1C251.681 328.672 252.185 327.538 253.277 327.538C254.383 327.538 254.887 328.672 254.887 330.1C254.887 331.542 254.383 332.676 253.277 332.676C252.185 332.676 251.681 331.542 251.681 330.1Z" fill="#424242"/>
<path d="M274.856 335H277.348V327.566H279.644V325.2H272.56V327.566H274.856V335ZM285.159 335.168C287.777 335.168 289.415 333.74 289.415 330.912V325.2H286.923V330.786C286.923 332.004 286.279 332.676 285.159 332.676C284.039 332.676 283.409 332.004 283.409 330.786V325.2H280.903V330.912C280.903 333.74 282.541 335.168 285.159 335.168ZM293.923 335.168C296.135 335.168 297.381 333.964 297.381 331.976C297.381 330.058 295.743 329.414 294.371 328.938C293.475 328.63 293.153 328.364 293.153 327.874C293.153 327.496 293.433 327.146 293.923 327.146C294.413 327.146 294.735 327.482 294.749 327.86L296.919 327.552C296.765 326.068 295.519 325.032 293.867 325.032C292.173 325.032 290.871 326.348 290.871 328C290.871 329.526 291.669 330.422 293.111 330.982C294.385 331.472 294.973 331.626 294.973 332.214C294.973 332.634 294.623 333.026 293.951 333.026C293.069 333.026 292.789 332.452 292.775 331.934L290.535 332.144C290.493 333.838 291.865 335.168 293.923 335.168Z" fill="#424242"/>
</svg>
