<svg xmlns="http://www.w3.org/2000/svg" viewBox="0 0 265.77 311.42"><g id="Calque_2" data-name="Calque 2"><g id="Calque_1-2" data-name="Calque 1"><path id="bracelet" d="M37,57.36c-2.31.13-6,.71-1.11-2.24,8.61-5.18,30.46-52,103.22-54.49s96.09,30.88,104.75,41c9.06,10.54,18.46,20.86,21,34.39s-8,37.15-8,37.15a98.45,98.45,0,0,0-2.59,20.53c0,10.09,1.45,51.9-13.77,87.7-14.53,34.17-50.86,19.89-52.95,19.11-3.32-1.24-16.91-15.39-14.62-35.93s3.14-41.2,3.14-41.2.68-30.34-9.1-45.47-8.1-27.52-6.11-32.11,7.8-18.86,7.8-18.86S182,95.86,181,103.05s59.46,2.6,59.46,2.6S252,101.83,252.73,91s-7.8-40.35-30.12-54.57-35.35-22.66-67.33-15.67-28.09,42.76-28.09,42.76,3.86,10.51,6.92,12.58c0,0,2.43,5.52-4.55,4s-8.83-14.55-13-17.81c-7.11-5.62-6.44-4.34-29.9-4.83C58.29,56.89,44.76,56.93,37,57.36Z" style="fill:#e7dad0;stroke:#1d1d1b;stroke-miterlimit:10"/><path id="bracelet2" d="M168.5,67.12s-17.81-24.26-17.92-27.24-3.44-15.25,13.07-16.28S194,23,210.08,30.25,229,41.16,229,41.16s17.76,13.08,23.49,42.46c0,0,3.07,10.7-3.58,16.77,0,0-4,3.87-8.39,5.26,0,0-35.31,2.27-41.66,1.36,0,0-10.19-.42-12.78-1.08s-4.31-.74-5-2.44c0,0-1.52-9.76-3.06-13.46C176.37,86.08,169.83,69,168.5,67.12Z" style="fill:#e7dad0;stroke:#1d1d1b;stroke-miterlimit:10"/><path id="boitierInf" d="M33.52,57.11S21.22,63.71,24,63c6.06-1.63,18.48-1.2,30-1.31L91,62s26,1.76,25.83,37.38-1.07,121.68-1.07,121.68-6.68,24.51-26.55,24.51-58.63-1.07-58.63-1.07a27,27,0,0,1-9.8-2.47c-4.2-2.22,9.76,8,9.76,8s56.48,2.83,74.9,1.76c0,0,8.48-.73,14.66-9.59a29,29,0,0,0,3.9-7.87c1.63-4.91,8.34-5.4,8.8-4.44a2,2,0,0,1,.56,2s5.87-8.56,6.1-16.51S139.07,86,139.07,86s-1.53-6.49-5-9.93c0,0,1.76,4.51-2.71,4.28s-7.11-5.13-7.11-5.13-4.49-9.85-5.24-10.88S114.12,59,111.14,58s-48.73-.47-59.43-.83S33.87,57.36,33.52,57.11Z" style="fill:#c3a089;stroke:#1d1d1b;stroke-miterlimit:10"/><path id="boiterSup" d="M23.89,62.84S2.79,73,1.88,91.7.5,217.35.5,217.35s1.18,14.45,20.25,24.88c0,0,4.71,3.23,18.2,2.9l47.27.84S106.94,249.46,116,221l1.07-121.68S118.62,65.74,91,62l-37-.34-16.65-.07S26,61.67,23.89,62.84Z" style="fill:#937760;stroke:#1d1d1b;stroke-miterlimit:10"/><path id="ecran" d="M9,98.39V209.14s.54,14.52,18.2,14.37,52.56,0,52.56,0,12.71-1.68,13.05-13.84-.57-111.28-.57-111.28-2-10.48-14-10.82-55.26,0-55.26,0S9.84,89.42,9,98.39Z" style="fill:#99adc2;stroke:#1d1d1b;stroke-miterlimit:10"/><path id="bouton" d="M139.14,98.69c-1-.78-3-2.59-8.86-1.83s-11.06,9.57-11.46,11.86-.86,12.56-.35,14.39,2.81,11.12,11,13.76,13-4.9,15.05-7.85a20.14,20.14,0,0,0,3.83-13.28C148.09,109.66,145.47,103.54,139.14,98.69Z" style="fill:#937760;stroke:#1d1d1b;stroke-miterlimit:10"/><ellipse id="trou2" cx="204.58" cy="195.23" rx="18.11" ry="21.55" style="fill:#937760;stroke:#1d1d1b;stroke-miterlimit:10"/><path id="braceletInf2" d="M140.8,281.3s22.55-18.05,34.45-57.79c0,0,4.94,12,11.21,16s23.38,5.11,27.83,3.73,13-3.28,22.52-14.77c0,0-7.45,28.23-19,44.06s-22.9,21.12-33.88,21.67-13.41,1.79-27.46-2.64C156.45,291.54,145.91,287,140.8,281.3Z" style="fill:#c3a089;stroke:#1d1d1b;stroke-miterlimit:10"/><g id="trous"><path d="M205,247.05c-3.43-2-15.9,6.65-10.24,12C202.59,262,212.75,251.71,205,247.05Z" style="fill:#937760;stroke:#1d1d1b;stroke-miterlimit:10"/><path d="M192.54,269.4c-5.21-2.48-16.75,5-11.09,10.37C187.67,282.48,197.47,271.76,192.54,269.4Z" style="fill:#937760;stroke:#1d1d1b;stroke-miterlimit:10"/><path d="M177.29,288.09c-4.62-2.29-19.21-1.31-13.71,3.46C169.09,294,181.08,290,177.29,288.09Z" style="fill:#937760;stroke:#1d1d1b;stroke-miterlimit:10"/></g><path id="bracelet3" d="M140.6,280.64c1.24,1.25,16.44,19.45,49.76,12.13,32.82-7.2,44.91-62.74,44.91-62.74a58.62,58.62,0,0,0,8-15.89c2.52-8.49,8.16-27.31,8.64-38.42s2.09-16.84,2.14-40c0,0-.75-8.42,2.81-22.58,0,0,2,35.91,1.36,49.76s-.72,33.2-8.44,61.25-16,48.39-33.23,63.62S177.36,307.93,171,309s-20.08,4.66-57.6-1.72-62.47-33.51-62.47-33.51S36.44,258.46,30.54,250c0,0,59.32,2.47,70,1.84s14.94-3.64,19.4-9.42c0,0,3.23-5.2,3.49-7.22,0,0,1.71-6.21,8.13-5.95s-5.5,16.51-5.5,16.51S123.06,263,140.6,280.64Z" style="fill:#e7dad0;stroke:#1d1d1b;stroke-miterlimit:10"/><path id="port" d="M132.34,159.11s-6.47.12-6.59,5.33-.11,42.14-.11,42.14,1.55,5.51,5.68,5.45a5.39,5.39,0,0,0,5.1-4V162.49A4.19,4.19,0,0,0,132.34,159.11Z" style="fill:#937760;stroke:#1d1d1b;stroke-miterlimit:10"/><rect id="port2" x="130.36" y="144.8" width="1.98" height="4.03" style="fill:#937760;stroke:#1d1d1b;stroke-miterlimit:10"/><path id="braceletInf" d="M186.06,105.93S178,67.11,162.7,51.29s8.54-17.24,14.1-17.2c13,.09,28.43,1.72,47.47,21.21,0,0,11.92,11.69,18.68,46.55a5.37,5.37,0,0,1,0,2.6c-.3,1.83-17.41,2-17.41,2s-23.09,1-25.69.73S186.72,106.38,186.06,105.93Z" style="fill:#c3a089;stroke:#1d1d1b;stroke-miterlimit:10"/><g id="interface"><text transform="translate(36.03 151.19)" style="font-size:21px;fill:#1d1d1b;font-family:MADEOkineSansPERSONALUSE-Bold, MADE Okine Sans PERSONAL USE;font-weight:700">09<tspan x="0" y="25.2" style="letter-spacing:-0.00999813988095238em">3</tspan><tspan x="11.49" y="25.2">0</tspan></text><text transform="translate(14.27 100.48)" style="font-size:8px;fill:#1d1d1b;font-family:MADEOkineSansPERSONALUSE-Bold, MADE Okine Sans PERSONAL USE;font-weight:700"><tspan style="letter-spacing:-0.010009765625em">2</tspan><tspan x="4.46" y="0">5</tspan><tspan x="8.98" y="0" style="letter-spacing:-0.04998779296875em">-</tspan><tspan x="13.01" y="0">10</tspan></text><text transform="translate(43.7 100.48)" style="font-size:8px;fill:#1d1d1b;font-family:MADEOkineSansPERSONALUSE-Bold, MADE Okine Sans PERSONAL USE;font-weight:700">TUS</text><path id="battery" d="M70.7,99.78V95.84h6.57v3.94Zm9.86-3.61a.65.65,0,0,1,.65.65v2a.65.65,0,0,1-.65.65v.83a.84.84,0,0,1-.83.82H70.2a.8.8,0,0,1-.58-.24.82.82,0,0,1-.24-.58V95.35a.78.78,0,0,1,.24-.58.77.77,0,0,1,.58-.25h9.53a.85.85,0,0,1,.83.83v.82Zm0,2.63v-2H79.9V95.35a.17.17,0,0,0-.17-.17H70.2a.16.16,0,0,0-.11,0,.13.13,0,0,0,0,.12v4.93a.13.13,0,0,0,0,.11.16.16,0,0,0,.11,0h9.53a.17.17,0,0,0,.12,0,.16.16,0,0,0,.05-.11V98.8Z" style="fill:#010101"/></g></g></g></svg>