<svg width="842" height="842" viewBox="0 0 842 842" fill="none" xmlns="http://www.w3.org/2000/svg">
<rect width="842" height="842" fill="#DCBFAF"/>
<ellipse cx="449.347" cy="675.525" rx="172.347" ry="10.525" fill="#9C7D66"/>
<path d="M252.828 262.791C249.073 263.002 243.075 263.945 251.024 259.15C264.954 250.73 300.536 174.543 418.806 170.577C537.076 166.611 574.999 220.756 589.075 237.173C603.802 254.306 619.082 271.081 623.211 293.074C627.339 315.066 610.207 353.46 610.207 353.46C607.635 364.405 606.224 375.591 605.997 386.831C605.997 403.233 608.354 471.194 583.614 529.386C559.931 584.864 500.877 561.717 497.48 560.482C492.083 558.466 469.993 535.466 473.715 502.078C477.437 468.691 478.819 435.108 478.819 435.108C478.819 435.108 479.924 385.791 464.027 361.198C448.13 336.604 450.861 316.464 454.095 309.003C457.33 301.542 466.774 278.347 466.774 278.347C466.774 278.347 488.377 325.486 486.898 337.092C485.418 348.698 583.549 341.318 583.549 341.318C583.549 341.318 602.177 335.109 603.428 317.456C604.68 299.803 590.75 251.868 554.469 228.753C518.188 205.639 497.008 191.92 445.025 203.282C393.042 214.644 399.365 272.771 399.365 272.771C399.365 272.771 405.64 289.855 410.614 293.22C410.614 293.22 414.564 302.193 403.218 299.722C391.872 297.251 388.865 276.071 382.086 270.772C370.529 261.637 371.618 263.717 333.485 262.921C287.37 262.027 265.377 262.092 252.828 262.791Z" fill="white"/>
<path d="M466.514 278.655C466.514 278.655 437.564 239.221 437.386 234.377C437.207 229.533 431.794 209.589 458.631 207.914C485.467 206.24 508.013 206.972 534.102 218.724C560.191 230.476 564.824 236.458 564.824 236.458C564.824 236.458 593.692 257.719 603.055 305.476C603.055 305.476 608.045 322.869 597.236 332.735C597.236 332.735 590.734 339.026 583.598 341.285C583.598 341.285 526.202 344.975 515.88 343.496C515.88 343.496 499.317 342.813 495.107 341.74C490.897 340.668 488.101 340.538 486.979 337.774C486.979 337.774 484.508 321.909 482.005 315.895C479.307 309.475 468.676 281.63 466.514 278.655Z" fill="white"/>
<path d="M247.075 262.385C247.075 262.385 227.082 273.113 231.552 271.91C241.402 269.26 261.591 269.959 280.316 269.781L340.459 270.333C340.459 270.333 382.722 273.194 382.445 331.094C382.169 388.993 380.706 528.882 380.706 528.882C380.706 528.882 369.848 568.723 337.549 568.723C305.251 568.723 242.329 566.984 242.329 566.984C236.813 566.66 231.409 565.298 226.399 562.969C219.572 559.36 242.264 575.973 242.264 575.973C242.264 575.973 334.071 580.573 364.012 578.834C364.012 578.834 377.796 577.647 387.842 563.245C390.592 559.328 392.73 555.014 394.181 550.453C396.831 542.472 407.738 541.675 408.485 543.235C408.92 543.642 409.235 544.16 409.396 544.734C409.556 545.307 409.556 545.913 409.396 546.486C409.396 546.486 418.937 532.572 419.311 519.65C419.685 506.727 418.677 309.426 418.677 309.426C418.677 309.426 416.19 298.877 410.55 293.285C410.55 293.285 413.411 300.616 406.145 300.242C398.879 299.868 394.588 291.903 394.588 291.903C394.588 291.903 387.289 275.892 386.07 274.218C384.851 272.544 378.056 265.554 373.212 263.896C368.368 262.238 294.068 263.019 276.675 262.466C259.282 261.913 247.676 262.791 247.075 262.385Z" fill="#DCBFAF"/>
<path d="M231.453 271.699C231.453 271.699 197.155 288.23 195.676 318.61C194.197 348.99 193.433 522.852 193.433 522.852C193.433 522.852 195.351 546.34 226.349 563.294C226.349 563.294 234.005 568.544 255.932 568.008L332.769 569.373C332.769 569.373 366.449 575.046 381.241 528.834L382.98 331.045C382.98 331.045 385.435 276.413 340.539 270.333L280.396 269.781L253.332 269.667C253.332 269.667 234.947 269.797 231.453 271.699Z" fill="#9C7D66"/>
<path d="M207.216 329.484V509.506C207.216 509.506 208.061 533.108 236.8 532.848C265.538 532.588 322.235 532.848 322.235 532.848C322.235 532.848 342.976 530.134 343.448 510.368C343.919 490.602 342.521 329.484 342.521 329.484C342.521 329.484 339.27 312.449 319.764 311.897C300.258 311.344 229.94 311.897 229.94 311.897C229.94 311.897 208.614 314.904 207.216 329.484Z" fill="#DCBFAF"/>
<path d="M418.79 329.972C417.165 328.704 413.914 325.762 404.389 326.998C394.863 328.233 386.411 342.553 385.76 346.276C385.11 349.998 384.363 366.692 385.192 369.667C386.021 372.641 389.759 387.742 403.072 392.033C416.385 396.324 424.203 384.068 427.535 379.273C432.092 373.037 434.297 365.391 433.761 357.687C433.338 347.804 429.128 337.791 418.79 329.972Z" fill="#9C7D66"/>
<path d="M525.158 521.925C541.416 521.925 554.596 506.242 554.596 486.896C554.596 467.55 541.416 451.867 525.158 451.867C508.9 451.867 495.721 467.55 495.721 486.896C495.721 506.242 508.9 521.925 525.158 521.925Z" fill="#9C7D66"/>
<path d="M421.488 626.801C421.488 626.801 458.143 597.461 477.486 532.865C477.486 532.865 485.516 552.371 495.708 558.872C505.9 565.374 533.712 567.179 540.945 564.936C548.178 562.692 562.076 559.604 577.551 540.927C577.551 540.927 565.441 586.815 546.667 612.546C527.892 638.277 509.443 646.876 491.595 647.77C473.748 648.664 469.765 650.647 447.008 643.381C447.008 643.381 429.794 636.132 421.488 626.801Z" fill="#DCBFAF"/>
<path d="M525.779 571.129C520.203 567.878 499.933 581.938 509.134 590.635C521.926 595.478 538.441 578.704 525.779 571.129Z" fill="#9C7D66"/>
<path d="M505.524 607.458C497.055 603.427 478.297 615.586 487.497 624.314C497.673 628.752 513.651 611.294 505.524 607.458Z" fill="#9C7D66"/>
<path d="M480.8 637.838C473.29 634.116 449.575 635.709 458.515 643.462C467.471 647.412 486.961 640.91 480.8 637.838Z" fill="#9C7D66"/>
<path d="M421.164 625.729C423.18 627.761 447.887 657.344 502.048 645.446C555.396 633.742 575.048 543.463 575.048 543.463C580.672 535.565 585.057 526.855 588.052 517.634C592.148 503.834 601.316 473.242 602.096 455.183C602.877 437.124 605.494 427.81 605.575 390.164C605.575 390.164 604.356 376.477 610.143 353.46C610.143 353.46 613.393 411.832 612.353 434.344C611.313 456.857 611.183 488.31 598.634 533.905C586.085 579.5 572.626 612.562 544.619 637.318C516.612 662.075 480.917 670.088 470.562 671.762C460.208 673.437 437.923 679.337 376.935 668.967C315.946 658.596 275.391 614.497 275.391 614.497C275.391 614.497 251.854 589.741 242.198 575.973C242.198 575.973 338.622 579.988 355.982 578.964C373.342 577.94 380.267 573.047 387.516 563.652C387.516 563.652 392.767 555.199 393.173 551.916C393.173 551.916 395.969 541.821 406.405 542.244C416.84 542.667 397.464 569.081 397.464 569.081C397.464 569.081 392.653 597.039 421.164 625.729Z" fill="white"/>
<path d="M407.737 428.184C407.737 428.184 397.22 428.379 397.025 436.848C396.83 445.316 396.846 505.346 396.846 505.346C396.846 505.346 399.366 514.302 406.079 514.204C407.979 514.166 409.815 513.511 411.31 512.339C412.806 511.166 413.879 509.539 414.369 507.702V433.694C414.069 432.152 413.245 430.76 412.036 429.756C410.827 428.752 409.308 428.196 407.737 428.184V428.184Z" fill="#9C7D66"/>
<path d="M407.737 404.923H404.519V411.474H407.737V404.923Z" fill="#9C7D66"/>
<path d="M495.058 341.74C495.058 341.74 481.875 278.639 457.087 252.924C432.298 227.209 470.968 224.901 480.006 224.966C501.137 225.112 526.219 227.762 557.168 259.442C557.168 259.442 576.543 278.444 587.532 335.108C587.878 336.496 587.878 337.947 587.532 339.335C587.044 342.309 559.232 342.586 559.232 342.586C559.232 342.586 521.7 344.211 517.457 343.772C513.215 343.333 496.131 342.472 495.058 341.74Z" fill="#DCBFAF"/>
<path d="M333.387 262.612C286.931 262.889 279.112 263.181 252.828 262.791C249.073 262.791 243.075 263.945 251.024 259.15" fill="white"/>
<path d="M315 336.982V330.982H325V336.982H315H315ZM330 331.482C330.276 331.482 330.512 331.58 330.707 331.775C330.902 331.97 331 332.206 331 332.482V335.482C331 335.758 330.902 335.994 330.707 336.189C330.512 336.385 330.276 336.482 330 336.482V337.732C330 338.076 329.878 338.37 329.633 338.615C329.388 338.86 329.094 338.982 328.75 338.982H314.25C313.906 338.982 313.612 338.86 313.367 338.615C313.122 338.37 313 338.076 313 337.732V330.232C313 329.888 313.122 329.594 313.367 329.349C313.612 329.105 313.906 328.982 314.25 328.982H328.75C329.094 328.982 329.388 329.105 329.633 329.349C329.878 329.594 330 329.888 330 330.232V331.482V331.482ZM330 335.482V332.482H329V330.232C329 330.159 328.977 330.099 328.93 330.052C328.883 330.006 328.823 329.982 328.75 329.982H314.25C314.177 329.982 314.117 330.006 314.07 330.052C314.023 330.099 314 330.159 314 330.232V337.732C314 337.805 314.023 337.865 314.07 337.912C314.117 337.959 314.177 337.982 314.25 337.982H328.75C328.823 337.982 328.883 337.959 328.93 337.912C328.977 337.865 329 337.805 329 337.732V335.482H330V335.482Z" fill="#424242"/>
<path d="M263.952 419.432C271.188 419.432 274.5 412.772 274.5 406.4C274.5 400.028 271.188 393.404 263.952 393.404C256.752 393.404 253.44 400.028 253.44 406.4C253.44 412.772 256.752 419.432 263.952 419.432ZM259.848 406.4C259.848 402.728 261.144 399.812 263.952 399.812C266.796 399.812 268.092 402.728 268.092 406.4C268.092 410.108 266.796 413.024 263.952 413.024C261.144 413.024 259.848 410.108 259.848 406.4ZM284.329 410.612L278.641 419H285.409L293.689 406.868C294.553 405.644 295.129 403.808 295.129 402.26C295.129 397.364 291.133 393.404 286.273 393.404C281.377 393.404 277.381 397.364 277.381 402.26C277.381 406.472 280.369 409.784 284.329 410.612ZM283.465 402.26C283.465 400.712 284.725 399.488 286.273 399.488C287.785 399.488 289.045 400.712 289.045 402.26C289.045 403.808 287.785 405.032 286.273 405.032C284.725 405.032 283.465 403.808 283.465 402.26ZM262.116 466.432C266.796 466.432 270.612 462.904 270.612 458.224C270.612 455.596 269.352 453.652 267.408 452.464C268.776 451.312 269.64 449.692 269.64 447.676C269.64 443.356 266.508 440.404 261.972 440.404C258.156 440.404 255.24 443.032 254.628 446.74L259.776 447.46C260.028 446.524 260.748 445.84 261.972 445.84C263.268 445.84 264.204 446.812 264.204 448C264.204 449.332 263.304 450.16 261.792 450.16H259.668V455.452H261.792C263.484 455.452 264.528 456.46 264.528 457.9C264.528 459.232 263.628 460.348 262.116 460.348C260.496 460.348 259.524 459.412 259.38 458.224L253.44 460.024C254.304 463.804 257.724 466.432 262.116 466.432ZM283.64 466.432C290.876 466.432 294.188 459.772 294.188 453.4C294.188 447.028 290.876 440.404 283.64 440.404C276.439 440.404 273.128 447.028 273.128 453.4C273.128 459.772 276.439 466.432 283.64 466.432ZM279.536 453.4C279.536 449.728 280.832 446.812 283.64 446.812C286.484 446.812 287.78 449.728 287.78 453.4C287.78 457.108 286.484 460.024 283.64 460.024C280.832 460.024 279.536 457.108 279.536 453.4Z" fill="#424242"/>
<path d="M218.826 336.886V339H225.378V336.76H222.354C223.95 335.136 225.042 334.17 225.042 332.238C225.042 330.25 223.712 329.046 221.78 329.046C220.254 329.046 219.008 329.97 218.56 331.678L220.856 332.294C221.01 331.664 221.374 331.412 221.78 331.412C222.368 331.412 222.676 331.79 222.676 332.322C222.676 333.428 221.29 334.688 218.826 336.886ZM229.727 339.168C231.617 339.168 233.171 337.614 233.171 335.71C233.171 333.82 231.743 332.574 229.853 332.574C229.643 332.574 229.433 332.602 229.223 332.644L229.349 331.566H232.499V329.2H227.515L226.913 334.562L228.887 335.038C229.055 334.814 229.363 334.632 229.727 334.632C230.357 334.632 230.805 335.122 230.805 335.71C230.805 336.312 230.357 336.802 229.727 336.802C229.167 336.802 228.775 336.48 228.635 336.06L226.367 336.746C226.815 338.146 228.145 339.168 229.727 339.168ZM234.856 336.018H240.358V333.638H234.856V336.018ZM243.437 339H245.929V329.2H243.941L241.337 330.432L242.107 332.462L243.437 331.86V339ZM251.277 339.168C254.091 339.168 255.379 336.578 255.379 334.1C255.379 331.622 254.091 329.046 251.277 329.046C248.477 329.046 247.189 331.622 247.189 334.1C247.189 336.578 248.477 339.168 251.277 339.168ZM249.681 334.1C249.681 332.672 250.185 331.538 251.277 331.538C252.383 331.538 252.887 332.672 252.887 334.1C252.887 335.542 252.383 336.676 251.277 336.676C250.185 336.676 249.681 335.542 249.681 334.1Z" fill="#424242"/>
<path d="M272.856 339H275.348V331.566H277.644V329.2H270.56V331.566H272.856V339ZM283.159 339.168C285.777 339.168 287.415 337.74 287.415 334.912V329.2H284.923V334.786C284.923 336.004 284.279 336.676 283.159 336.676C282.039 336.676 281.409 336.004 281.409 334.786V329.2H278.903V334.912C278.903 337.74 280.541 339.168 283.159 339.168ZM291.923 339.168C294.135 339.168 295.381 337.964 295.381 335.976C295.381 334.058 293.743 333.414 292.371 332.938C291.475 332.63 291.153 332.364 291.153 331.874C291.153 331.496 291.433 331.146 291.923 331.146C292.413 331.146 292.735 331.482 292.749 331.86L294.919 331.552C294.765 330.068 293.519 329.032 291.867 329.032C290.173 329.032 288.871 330.348 288.871 332C288.871 333.526 289.669 334.422 291.111 334.982C292.385 335.472 292.973 335.626 292.973 336.214C292.973 336.634 292.623 337.026 291.951 337.026C291.069 337.026 290.789 336.452 290.775 335.934L288.535 336.144C288.493 337.838 289.865 339.168 291.923 339.168Z" fill="#424242"/>
</svg>
