<svg xmlns="http://www.w3.org/2000/svg" viewBox="0 0 204.91 37.92"><g id="Calque_2" data-name="Calque 2"><g id="Calque_1-2" data-name="Calque 1"><path d="M8.91,3.67c-.33.39,5.39,9.55,7.84,14.3C16.75,18-.56,37.45,0,37.91.36,38.2,24.55,25,24.55,25S46.11,31,47,30.69c.63-.22-12-12.16-12-12.16S63.16,1.07,62.84,0c-.18-.6-36.23,11.41-36.23,11.41S9.48,3,8.91,3.67Z" style="fill:#000"/><path d="M85.37,9.23H75.75A3.55,3.55,0,0,1,79.3,5.69H98.53a3.39,3.39,0,0,1-1,2.5,3.42,3.42,0,0,1-2.5,1H88.92V27.42A3.55,3.55,0,0,1,85.37,31Z" style="fill:#000"/><path d="M101.17,9.24a3.55,3.55,0,0,1,3.55-3.55V27.44a3.33,3.33,0,0,1-1.06,2.49,3.38,3.38,0,0,1-2.49,1Z" style="fill:#000"/><path d="M107.36,5.69a3.47,3.47,0,0,1,2.51,1,3.43,3.43,0,0,1,1,2.51V27.42A3.55,3.55,0,0,1,107.36,31Zm16.08,24.58a6.55,6.55,0,0,1-2.29-1.76l-9.29-10.18,9.29-10.17a6.72,6.72,0,0,1,2.29-1.78,11.2,11.2,0,0,1,4.76-.69L116.65,18.33,128.2,31A11,11,0,0,1,123.44,30.27Z" style="fill:#000"/><path d="M149.39,9.23h-9.62a3.55,3.55,0,0,1,3.55-3.54h19.23a3.39,3.39,0,0,1-1.05,2.5,3.42,3.42,0,0,1-2.5,1h-6.06V27.42A3.55,3.55,0,0,1,149.39,31Z" style="fill:#000"/><path d="M181.43,31h-1.05a3.62,3.62,0,0,1-3.38-2.3l-1.69-4.36H164.7a3.52,3.52,0,0,1,3.53-3.55h5.69L169.35,9l-7.64,19.73a3.61,3.61,0,0,1-3.36,2.3h-1.07l8.89-23a3.64,3.64,0,0,1,2-2l1-.27.19,0,.2,0,1,.27a3.59,3.59,0,0,1,2,2Z" style="fill:#000"/><path d="M184.07,5.69a3.55,3.55,0,0,1,3.55,3.55V27.42A3.55,3.55,0,0,1,184.07,31Zm16.08,24.58a6.43,6.43,0,0,1-2.28-1.76l-9.3-10.18,9.3-10.17a6.59,6.59,0,0,1,2.28-1.78,11.2,11.2,0,0,1,4.76-.69L193.37,18.33,204.91,31A11,11,0,0,1,200.15,30.27Z" style="fill:#000"/></g></g></svg>