<svg width="842" height="842" viewBox="0 0 842 842" fill="none" xmlns="http://www.w3.org/2000/svg">
<rect width="842" height="842" fill="#CCAEDB"/>
<ellipse cx="447.914" cy="696.155" rx="172.347" ry="10.525" fill="#8B639A"/>
<path d="M245.395 283.421C241.64 283.632 235.642 284.575 243.591 279.78C257.521 271.36 293.103 195.173 411.373 191.207C529.643 187.241 567.566 241.386 581.643 257.803C596.369 274.936 611.649 291.711 615.778 313.703C619.906 335.696 602.774 374.09 602.774 374.09C600.202 385.035 598.791 396.22 598.564 407.461C598.564 423.862 600.921 491.824 576.181 550.016C552.498 605.494 493.444 582.347 490.047 581.111C484.65 579.096 462.56 556.095 466.282 522.708C470.004 489.321 471.386 455.738 471.386 455.738C471.386 455.738 472.491 406.421 456.594 381.827C440.697 357.234 443.428 337.094 446.662 329.633C449.897 322.172 459.341 298.976 459.341 298.976C459.341 298.976 480.944 346.115 479.465 357.721C477.986 369.327 576.116 361.948 576.116 361.948C576.116 361.948 594.744 355.738 595.996 338.086C597.247 320.433 583.317 272.497 547.036 249.383C510.755 226.269 489.575 212.55 437.592 223.912C385.609 235.274 391.933 293.401 391.933 293.401C391.933 293.401 398.207 310.485 403.181 313.85C403.181 313.85 407.131 322.822 395.785 320.352C384.439 317.881 381.432 296.701 374.654 291.402C363.096 282.267 364.186 284.347 326.052 283.551C279.937 282.657 257.944 282.722 245.395 283.421Z" fill="white"/>
<path d="M459.082 299.285C459.082 299.285 430.132 259.851 429.953 255.007C429.774 250.163 424.361 230.219 451.198 228.544C478.035 226.87 500.58 227.602 526.669 239.354C552.758 251.106 557.391 257.088 557.391 257.088C557.391 257.088 586.259 278.349 595.622 326.106C595.622 326.106 600.612 343.498 589.803 353.365C589.803 353.365 583.301 359.656 576.165 361.915C576.165 361.915 518.769 365.605 508.448 364.126C508.448 364.126 491.884 363.443 487.674 362.37C483.464 361.297 480.668 361.167 479.547 358.404C479.547 358.404 477.076 342.539 474.573 336.525C471.874 330.104 461.244 302.26 459.082 299.285Z" fill="white"/>
<path d="M239.641 283.014C239.641 283.014 219.648 293.742 224.118 292.54C233.968 289.89 254.157 290.589 272.882 290.41L333.025 290.963C333.025 290.963 375.288 293.824 375.011 351.723C374.735 409.623 373.272 549.512 373.272 549.512C373.272 549.512 362.414 589.353 330.116 589.353C297.817 589.353 234.895 587.613 234.895 587.613C229.379 587.29 223.975 585.927 218.965 583.598C212.138 579.99 234.83 596.602 234.83 596.602C234.83 596.602 326.637 601.202 356.578 599.463C356.578 599.463 370.362 598.277 380.408 583.875C383.158 579.957 385.296 575.644 386.747 571.082C389.397 563.101 400.304 562.305 401.052 563.865C401.486 564.272 401.801 564.79 401.962 565.363C402.122 565.936 402.122 566.543 401.962 567.116C401.962 567.116 411.503 553.202 411.877 540.279C412.251 527.357 411.243 330.056 411.243 330.056C411.243 330.056 408.756 319.506 403.116 313.915C403.116 313.915 405.977 321.246 398.711 320.872C391.445 320.498 387.154 312.533 387.154 312.533C387.154 312.533 379.855 296.522 378.636 294.848C377.417 293.173 370.623 286.184 365.779 284.526C360.935 282.868 286.634 283.648 269.241 283.095C251.849 282.543 240.243 283.421 239.641 283.014Z" fill="#CCAEDB"/>
<path d="M224.02 292.328C224.02 292.328 189.723 308.859 188.243 339.24C186.764 369.62 186 543.482 186 543.482C186 543.482 187.918 566.97 218.916 583.924C218.916 583.924 226.572 589.174 248.5 588.637L325.337 590.003C325.337 590.003 359.017 595.676 373.808 549.463L375.548 351.675C375.548 351.675 378.002 297.042 333.106 290.963L272.964 290.41L245.899 290.296C245.899 290.296 227.515 290.426 224.02 292.328Z" fill="#8B639A"/>
<path d="M199.785 350.114V530.136C199.785 530.136 200.63 553.738 229.368 553.478C258.107 553.218 314.804 553.478 314.804 553.478C314.804 553.478 335.545 550.764 336.016 530.998C336.488 511.232 335.09 350.114 335.09 350.114C335.09 350.114 331.839 333.079 312.333 332.526C292.827 331.974 222.509 332.526 222.509 332.526C222.509 332.526 201.183 335.534 199.785 350.114Z" fill="#CCAEDB"/>
<path d="M411.357 350.602C409.732 349.334 406.481 346.392 396.955 347.627C387.43 348.863 378.978 363.183 378.327 366.905C377.677 370.628 376.929 387.322 377.758 390.296C378.587 393.271 382.326 408.371 395.639 412.663C408.951 416.954 416.77 404.698 420.102 399.903C424.659 393.667 426.864 386.021 426.328 378.316C425.905 368.433 421.695 358.42 411.357 350.602Z" fill="#8B639A"/>
<path d="M517.727 542.555C533.984 542.555 547.164 526.872 547.164 507.526C547.164 488.18 533.984 472.497 517.727 472.497C501.469 472.497 488.289 488.18 488.289 507.526C488.289 526.872 501.469 542.555 517.727 542.555Z" fill="#8B639A"/>
<path d="M414.056 647.431C414.056 647.431 450.71 618.091 470.054 553.495C470.054 553.495 478.083 573 488.275 579.502C498.467 586.004 526.279 587.808 533.512 585.565C540.746 583.322 554.644 580.234 570.118 561.557C570.118 561.557 558.008 607.444 539.234 633.176C520.46 658.907 502.01 667.506 484.163 668.4C466.315 669.294 462.332 671.277 439.576 664.011C439.576 664.011 422.362 656.761 414.056 647.431Z" fill="#CCAEDB"/>
<path d="M518.344 591.758C512.769 588.507 492.499 602.568 501.699 611.264C514.492 616.108 531.007 599.333 518.344 591.758Z" fill="#8B639A"/>
<path d="M498.09 628.088C489.621 624.057 470.863 636.215 480.064 644.944C490.239 649.382 506.218 631.924 498.09 628.088Z" fill="#8B639A"/>
<path d="M473.367 658.468C465.857 654.746 442.141 656.339 451.081 664.092C460.038 668.042 479.527 661.54 473.367 658.468Z" fill="#8B639A"/>
<path d="M413.731 646.358C415.746 648.39 440.454 677.974 494.615 666.075C547.963 654.372 567.615 564.093 567.615 564.093C573.239 556.195 577.624 547.485 580.619 538.264C584.715 524.463 593.883 493.872 594.663 475.813C595.443 457.754 598.06 448.44 598.142 410.793C598.142 410.793 596.923 397.107 602.709 374.09C602.709 374.09 605.96 432.461 604.92 454.974C603.88 477.487 603.75 508.94 591.201 554.535C578.652 600.13 565.193 633.192 537.186 657.948C509.179 682.704 473.484 690.718 463.129 692.392C452.775 694.066 430.489 699.967 369.501 689.596C308.513 679.226 267.957 635.126 267.957 635.126C267.957 635.126 244.421 610.37 234.765 596.602C234.765 596.602 331.189 600.617 348.549 599.593C365.909 598.569 372.834 593.677 380.083 584.281C380.083 584.281 385.334 575.829 385.74 572.545C385.74 572.545 388.536 562.451 398.971 562.874C409.407 563.296 390.031 589.71 390.031 589.71C390.031 589.71 385.22 617.669 413.731 646.358Z" fill="white"/>
<path d="M400.304 448.813C400.304 448.813 389.787 449.009 389.592 457.477C389.397 465.946 389.413 525.975 389.413 525.975C389.413 525.975 391.932 534.932 398.646 534.834C400.546 534.796 402.382 534.141 403.877 532.968C405.372 531.795 406.446 530.168 406.936 528.332V454.324C406.636 452.781 405.811 451.39 404.603 450.386C403.394 449.381 401.875 448.826 400.304 448.813V448.813Z" fill="#8B639A"/>
<path d="M400.304 425.553H397.085V432.103H400.304V425.553Z" fill="#8B639A"/>
<path d="M487.625 362.37C487.625 362.37 474.443 299.269 449.654 273.554C424.866 247.839 463.536 245.531 472.573 245.596C493.705 245.742 518.786 248.391 549.735 280.072C549.735 280.072 569.111 299.074 580.099 355.738C580.445 357.126 580.445 358.577 580.099 359.964C579.611 362.939 551.799 363.215 551.799 363.215C551.799 363.215 514.267 364.841 510.025 364.402C505.782 363.963 488.698 363.102 487.625 362.37Z" fill="#CCAEDB"/>
<path d="M325.954 283.242C279.498 283.518 271.679 283.811 245.395 283.421C241.64 283.421 235.642 284.575 243.591 279.78" fill="white"/>
<path d="M303.567 351.612V345.612H313.567V351.612H303.567H303.567ZM318.567 346.112C318.843 346.112 319.079 346.21 319.274 346.405C319.47 346.6 319.567 346.836 319.567 347.112V350.112C319.567 350.388 319.47 350.624 319.274 350.819C319.079 351.014 318.843 351.112 318.567 351.112V352.362C318.567 352.706 318.445 353 318.2 353.245C317.955 353.49 317.661 353.612 317.317 353.612H302.817C302.474 353.612 302.179 353.49 301.935 353.245C301.69 353 301.567 352.706 301.567 352.362V344.862C301.567 344.518 301.69 344.224 301.935 343.979C302.179 343.734 302.474 343.612 302.817 343.612H317.317C317.661 343.612 317.955 343.734 318.2 343.979C318.445 344.224 318.567 344.518 318.567 344.862V346.112V346.112ZM318.567 350.112V347.112H317.567V344.862C317.567 344.789 317.544 344.729 317.497 344.682C317.45 344.635 317.39 344.612 317.317 344.612H302.817C302.744 344.612 302.685 344.635 302.638 344.682C302.591 344.729 302.567 344.789 302.567 344.862V352.362C302.567 352.435 302.591 352.495 302.638 352.542C302.685 352.589 302.744 352.612 302.817 352.612H317.317C317.39 352.612 317.45 352.589 317.497 352.542C317.544 352.495 317.567 352.435 317.567 352.362V350.112H318.567V350.112Z" fill="#424242"/>
<path d="M252.519 434.062C259.755 434.062 263.067 427.402 263.067 421.03C263.067 414.658 259.755 408.034 252.519 408.034C245.319 408.034 242.007 414.658 242.007 421.03C242.007 427.402 245.319 434.062 252.519 434.062ZM248.415 421.03C248.415 417.358 249.711 414.442 252.519 414.442C255.363 414.442 256.659 417.358 256.659 421.03C256.659 424.738 255.363 427.654 252.519 427.654C249.711 427.654 248.415 424.738 248.415 421.03ZM272.897 425.242L267.209 433.63H273.977L282.257 421.498C283.121 420.274 283.697 418.438 283.697 416.89C283.697 411.994 279.701 408.034 274.841 408.034C269.945 408.034 265.949 411.994 265.949 416.89C265.949 421.102 268.937 424.414 272.897 425.242ZM272.033 416.89C272.033 415.342 273.293 414.118 274.841 414.118C276.353 414.118 277.613 415.342 277.613 416.89C277.613 418.438 276.353 419.662 274.841 419.662C273.293 419.662 272.033 418.438 272.033 416.89ZM250.683 481.062C255.363 481.062 259.179 477.534 259.179 472.854C259.179 470.226 257.919 468.282 255.975 467.094C257.343 465.942 258.207 464.322 258.207 462.306C258.207 457.986 255.075 455.034 250.539 455.034C246.723 455.034 243.807 457.662 243.195 461.37L248.343 462.09C248.595 461.154 249.315 460.47 250.539 460.47C251.835 460.47 252.771 461.442 252.771 462.63C252.771 463.962 251.871 464.79 250.359 464.79H248.235V470.082H250.359C252.051 470.082 253.095 471.09 253.095 472.53C253.095 473.862 252.195 474.978 250.683 474.978C249.063 474.978 248.091 474.042 247.947 472.854L242.007 474.654C242.871 478.434 246.291 481.062 250.683 481.062ZM272.207 481.062C279.443 481.062 282.755 474.402 282.755 468.03C282.755 461.658 279.443 455.034 272.207 455.034C265.007 455.034 261.695 461.658 261.695 468.03C261.695 474.402 265.007 481.062 272.207 481.062ZM268.103 468.03C268.103 464.358 269.399 461.442 272.207 461.442C275.051 461.442 276.347 464.358 276.347 468.03C276.347 471.738 275.051 474.654 272.207 474.654C269.399 474.654 268.103 471.738 268.103 468.03Z" fill="#424242"/>
<path d="M207.393 351.516V353.63H213.945V351.39H210.921C212.517 349.766 213.609 348.8 213.609 346.868C213.609 344.88 212.279 343.676 210.347 343.676C208.821 343.676 207.575 344.6 207.127 346.308L209.423 346.924C209.577 346.294 209.941 346.042 210.347 346.042C210.935 346.042 211.243 346.42 211.243 346.952C211.243 348.058 209.857 349.318 207.393 351.516ZM218.294 353.798C220.184 353.798 221.738 352.244 221.738 350.34C221.738 348.45 220.31 347.204 218.42 347.204C218.21 347.204 218 347.232 217.79 347.274L217.916 346.196H221.066V343.83H216.082L215.48 349.192L217.454 349.668C217.622 349.444 217.93 349.262 218.294 349.262C218.924 349.262 219.372 349.752 219.372 350.34C219.372 350.942 218.924 351.432 218.294 351.432C217.734 351.432 217.342 351.11 217.202 350.69L214.934 351.376C215.382 352.776 216.712 353.798 218.294 353.798ZM223.424 350.648H228.926V348.268H223.424V350.648ZM232.005 353.63H234.497V343.83H232.509L229.905 345.062L230.675 347.092L232.005 346.49V353.63ZM239.844 353.798C242.658 353.798 243.946 351.208 243.946 348.73C243.946 346.252 242.658 343.676 239.844 343.676C237.044 343.676 235.756 346.252 235.756 348.73C235.756 351.208 237.044 353.798 239.844 353.798ZM238.248 348.73C238.248 347.302 238.752 346.168 239.844 346.168C240.95 346.168 241.454 347.302 241.454 348.73C241.454 350.172 240.95 351.306 239.844 351.306C238.752 351.306 238.248 350.172 238.248 348.73Z" fill="#424242"/>
<path d="M261.423 353.63H263.915V346.196H266.211V343.83H259.127V346.196H261.423V353.63ZM271.727 353.798C274.345 353.798 275.983 352.37 275.983 349.542V343.83H273.491V349.416C273.491 350.634 272.847 351.306 271.727 351.306C270.607 351.306 269.977 350.634 269.977 349.416V343.83H267.471V349.542C267.471 352.37 269.109 353.798 271.727 353.798ZM280.491 353.798C282.703 353.798 283.949 352.594 283.949 350.606C283.949 348.688 282.311 348.044 280.939 347.568C280.043 347.26 279.721 346.994 279.721 346.504C279.721 346.126 280.001 345.776 280.491 345.776C280.981 345.776 281.303 346.112 281.317 346.49L283.487 346.182C283.333 344.698 282.087 343.662 280.435 343.662C278.741 343.662 277.439 344.978 277.439 346.63C277.439 348.156 278.237 349.052 279.679 349.612C280.953 350.102 281.541 350.256 281.541 350.844C281.541 351.264 281.191 351.656 280.519 351.656C279.637 351.656 279.357 351.082 279.343 350.564L277.103 350.774C277.061 352.468 278.433 353.798 280.491 353.798Z" fill="#424242"/>
</svg>
