<svg width="842" height="842" viewBox="0 0 842 842" fill="none" xmlns="http://www.w3.org/2000/svg">
<rect width="842" height="842" fill="#DACCAD"/>
<ellipse cx="445.347" cy="674.525" rx="172.347" ry="10.525" fill="#9C8F66"/>
<path d="M252.828 262.791C249.073 263.002 243.075 263.945 251.024 259.15C264.954 250.73 300.536 174.543 418.806 170.577C537.076 166.611 574.999 220.756 589.075 237.173C603.802 254.306 619.082 271.081 623.211 293.074C627.339 315.066 610.207 353.46 610.207 353.46C607.635 364.405 606.224 375.591 605.997 386.831C605.997 403.233 608.354 471.194 583.614 529.386C559.931 584.864 500.877 561.717 497.48 560.482C492.083 558.466 469.993 535.466 473.715 502.078C477.437 468.691 478.819 435.108 478.819 435.108C478.819 435.108 479.924 385.791 464.027 361.198C448.13 336.604 450.861 316.464 454.095 309.003C457.33 301.542 466.774 278.347 466.774 278.347C466.774 278.347 488.377 325.486 486.898 337.092C485.418 348.698 583.549 341.318 583.549 341.318C583.549 341.318 602.177 335.109 603.428 317.456C604.68 299.803 590.75 251.868 554.469 228.753C518.188 205.639 497.008 191.92 445.025 203.282C393.042 214.644 399.365 272.771 399.365 272.771C399.365 272.771 405.64 289.855 410.614 293.22C410.614 293.22 414.564 302.193 403.218 299.722C391.872 297.251 388.865 276.071 382.086 270.772C370.529 261.637 371.618 263.717 333.485 262.921C287.37 262.027 265.377 262.092 252.828 262.791Z" fill="white"/>
<path d="M466.513 278.655C466.513 278.655 437.564 239.221 437.385 234.377C437.206 229.533 431.793 209.589 458.63 207.914C485.466 206.24 508.012 206.972 534.101 218.724C560.19 230.476 564.823 236.458 564.823 236.458C564.823 236.458 593.691 257.719 603.054 305.476C603.054 305.476 608.044 322.869 597.235 332.735C597.235 332.735 590.733 339.026 583.597 341.285C583.597 341.285 526.201 344.975 515.879 343.496C515.879 343.496 499.316 342.813 495.106 341.74C490.896 340.668 488.1 340.538 486.978 337.774C486.978 337.774 484.507 321.909 482.004 315.895C479.306 309.475 468.675 281.63 466.513 278.655Z" fill="white"/>
<path d="M247.074 262.385C247.074 262.385 227.081 273.113 231.551 271.91C241.401 269.26 261.59 269.959 280.315 269.781L340.458 270.333C340.458 270.333 382.721 273.194 382.444 331.094C382.168 388.993 380.705 528.882 380.705 528.882C380.705 528.882 369.847 568.723 337.548 568.723C305.25 568.723 242.328 566.984 242.328 566.984C236.812 566.66 231.408 565.298 226.398 562.969C219.571 559.36 242.263 575.973 242.263 575.973C242.263 575.973 334.07 580.573 364.011 578.834C364.011 578.834 377.795 577.647 387.841 563.245C390.591 559.328 392.729 555.014 394.18 550.453C396.83 542.472 407.737 541.675 408.484 543.235C408.919 543.642 409.234 544.16 409.395 544.734C409.555 545.307 409.555 545.913 409.395 546.486C409.395 546.486 418.936 532.572 419.31 519.65C419.684 506.727 418.676 309.426 418.676 309.426C418.676 309.426 416.189 298.877 410.549 293.285C410.549 293.285 413.41 300.616 406.144 300.242C398.878 299.868 394.587 291.903 394.587 291.903C394.587 291.903 387.288 275.892 386.069 274.218C384.85 272.544 378.055 265.554 373.211 263.896C368.368 262.238 294.067 263.019 276.674 262.466C259.281 261.913 247.675 262.791 247.074 262.385Z" fill="#DACCAD"/>
<path d="M231.453 271.699C231.453 271.699 197.155 288.23 195.676 318.61C194.197 348.99 193.433 522.852 193.433 522.852C193.433 522.852 195.351 546.34 226.349 563.294C226.349 563.294 234.005 568.544 255.932 568.008L332.769 569.373C332.769 569.373 366.449 575.046 381.241 528.834L382.98 331.045C382.98 331.045 385.435 276.413 340.539 270.333L280.396 269.781L253.332 269.667C253.332 269.667 234.947 269.797 231.453 271.699Z" fill="#9C8F66"/>
<path d="M207.218 329.484V509.506C207.218 509.506 208.063 533.108 236.802 532.848C265.54 532.588 322.237 532.848 322.237 532.848C322.237 532.848 342.978 530.134 343.449 510.368C343.921 490.602 342.523 329.484 342.523 329.484C342.523 329.484 339.272 312.449 319.766 311.897C300.26 311.344 229.942 311.897 229.942 311.897C229.942 311.897 208.616 314.904 207.218 329.484Z" fill="#DACCAD"/>
<path d="M418.789 329.972C417.164 328.704 413.913 325.762 404.388 326.998C394.862 328.233 386.41 342.553 385.76 346.276C385.109 349.998 384.362 366.692 385.191 369.667C386.02 372.641 389.758 387.742 403.071 392.033C416.384 396.324 424.202 384.068 427.534 379.273C432.091 373.037 434.296 365.391 433.76 357.687C433.337 347.804 429.127 337.791 418.789 329.972Z" fill="#9C8F66"/>
<path d="M525.159 521.925C541.417 521.925 554.597 506.242 554.597 486.896C554.597 467.55 541.417 451.867 525.159 451.867C508.901 451.867 495.722 467.55 495.722 486.896C495.722 506.242 508.901 521.925 525.159 521.925Z" fill="#9C8F66"/>
<path d="M421.488 626.801C421.488 626.801 458.143 597.461 477.486 532.865C477.486 532.865 485.516 552.371 495.708 558.872C505.9 565.374 533.712 567.179 540.945 564.936C548.178 562.692 562.076 559.604 577.551 540.927C577.551 540.927 565.441 586.815 546.667 612.546C527.892 638.277 509.443 646.876 491.595 647.77C473.748 648.664 469.765 650.647 447.008 643.381C447.008 643.381 429.794 636.132 421.488 626.801Z" fill="#DACCAD"/>
<path d="M525.777 571.129C520.201 567.878 499.932 581.938 509.132 590.635C521.924 595.478 538.439 578.704 525.777 571.129Z" fill="#9C8F66"/>
<path d="M505.523 607.458C497.054 603.427 478.296 615.586 487.496 624.314C497.672 628.752 513.65 611.294 505.523 607.458Z" fill="#9C8F66"/>
<path d="M480.799 637.838C473.289 634.116 449.574 635.709 458.514 643.462C467.47 647.412 486.96 640.91 480.799 637.838Z" fill="#9C8F66"/>
<path d="M421.164 625.729C423.18 627.761 447.887 657.344 502.048 645.446C555.396 633.742 575.048 543.463 575.048 543.463C580.672 535.565 585.057 526.855 588.052 517.634C592.148 503.834 601.316 473.242 602.096 455.183C602.877 437.124 605.494 427.81 605.575 390.164C605.575 390.164 604.356 376.477 610.143 353.46C610.143 353.46 613.393 411.832 612.353 434.344C611.313 456.857 611.183 488.31 598.634 533.905C586.085 579.5 572.626 612.562 544.619 637.318C516.612 662.075 480.917 670.088 470.562 671.762C460.208 673.437 437.923 679.337 376.935 668.967C315.946 658.596 275.391 614.497 275.391 614.497C275.391 614.497 251.854 589.741 242.198 575.973C242.198 575.973 338.622 579.988 355.982 578.964C373.342 577.94 380.267 573.047 387.516 563.652C387.516 563.652 392.767 555.199 393.173 551.916C393.173 551.916 395.969 541.821 406.405 542.244C416.84 542.667 397.464 569.081 397.464 569.081C397.464 569.081 392.653 597.039 421.164 625.729Z" fill="white"/>
<path d="M407.736 428.184C407.736 428.184 397.219 428.379 397.024 436.848C396.829 445.316 396.845 505.346 396.845 505.346C396.845 505.346 399.365 514.302 406.078 514.204C407.978 514.166 409.814 513.511 411.309 512.339C412.805 511.166 413.878 509.539 414.368 507.702V433.694C414.068 432.152 413.244 430.76 412.035 429.756C410.826 428.752 409.307 428.196 407.736 428.184V428.184Z" fill="#9C8F66"/>
<path d="M407.737 404.923H404.519V411.474H407.737V404.923Z" fill="#9C8F66"/>
<path d="M495.058 341.74C495.058 341.74 481.875 278.639 457.087 252.924C432.298 227.209 470.968 224.901 480.006 224.966C501.137 225.112 526.219 227.762 557.168 259.442C557.168 259.442 576.543 278.444 587.532 335.108C587.878 336.496 587.878 337.947 587.532 339.335C587.044 342.309 559.232 342.586 559.232 342.586C559.232 342.586 521.7 344.211 517.457 343.772C513.215 343.333 496.131 342.472 495.058 341.74Z" fill="#DACCAD"/>
<path d="M333.387 262.612C286.931 262.889 279.112 263.181 252.828 262.791C249.073 262.791 243.075 263.945 251.024 259.15" fill="white"/>
<path d="M313 332.982V326.982H323V332.982H313H313ZM328 327.482C328.276 327.482 328.512 327.58 328.707 327.775C328.902 327.97 329 328.206 329 328.482V331.482C329 331.758 328.902 331.994 328.707 332.189C328.512 332.385 328.276 332.482 328 332.482V333.732C328 334.076 327.878 334.37 327.633 334.615C327.388 334.86 327.094 334.982 326.75 334.982H312.25C311.906 334.982 311.612 334.86 311.367 334.615C311.122 334.37 311 334.076 311 333.732V326.232C311 325.888 311.122 325.594 311.367 325.349C311.612 325.105 311.906 324.982 312.25 324.982H326.75C327.094 324.982 327.388 325.105 327.633 325.349C327.878 325.594 328 325.888 328 326.232V327.482V327.482ZM328 331.482V328.482H327V326.232C327 326.159 326.977 326.099 326.93 326.052C326.883 326.006 326.823 325.982 326.75 325.982H312.25C312.177 325.982 312.117 326.006 312.07 326.052C312.023 326.099 312 326.159 312 326.232V333.732C312 333.805 312.023 333.865 312.07 333.912C312.117 333.959 312.177 333.982 312.25 333.982H326.75C326.823 333.982 326.883 333.959 326.93 333.912C326.977 333.865 327 333.805 327 333.732V331.482H328V331.482Z" fill="#424242"/>
<path d="M261.952 415.432C269.188 415.432 272.5 408.772 272.5 402.4C272.5 396.028 269.188 389.404 261.952 389.404C254.752 389.404 251.44 396.028 251.44 402.4C251.44 408.772 254.752 415.432 261.952 415.432ZM257.848 402.4C257.848 398.728 259.144 395.812 261.952 395.812C264.796 395.812 266.092 398.728 266.092 402.4C266.092 406.108 264.796 409.024 261.952 409.024C259.144 409.024 257.848 406.108 257.848 402.4ZM282.329 406.612L276.641 415H283.409L291.689 402.868C292.553 401.644 293.129 399.808 293.129 398.26C293.129 393.364 289.133 389.404 284.273 389.404C279.377 389.404 275.381 393.364 275.381 398.26C275.381 402.472 278.369 405.784 282.329 406.612ZM281.465 398.26C281.465 396.712 282.725 395.488 284.273 395.488C285.785 395.488 287.045 396.712 287.045 398.26C287.045 399.808 285.785 401.032 284.273 401.032C282.725 401.032 281.465 399.808 281.465 398.26ZM260.116 462.432C264.796 462.432 268.612 458.904 268.612 454.224C268.612 451.596 267.352 449.652 265.408 448.464C266.776 447.312 267.64 445.692 267.64 443.676C267.64 439.356 264.508 436.404 259.972 436.404C256.156 436.404 253.24 439.032 252.628 442.74L257.776 443.46C258.028 442.524 258.748 441.84 259.972 441.84C261.268 441.84 262.204 442.812 262.204 444C262.204 445.332 261.304 446.16 259.792 446.16H257.668V451.452H259.792C261.484 451.452 262.528 452.46 262.528 453.9C262.528 455.232 261.628 456.348 260.116 456.348C258.496 456.348 257.524 455.412 257.38 454.224L251.44 456.024C252.304 459.804 255.724 462.432 260.116 462.432ZM281.64 462.432C288.876 462.432 292.188 455.772 292.188 449.4C292.188 443.028 288.876 436.404 281.64 436.404C274.439 436.404 271.128 443.028 271.128 449.4C271.128 455.772 274.439 462.432 281.64 462.432ZM277.536 449.4C277.536 445.728 278.832 442.812 281.64 442.812C284.484 442.812 285.78 445.728 285.78 449.4C285.78 453.108 284.484 456.024 281.64 456.024C278.832 456.024 277.536 453.108 277.536 449.4Z" fill="#424242"/>
<path d="M216.826 332.886V335H223.378V332.76H220.354C221.95 331.136 223.042 330.17 223.042 328.238C223.042 326.25 221.712 325.046 219.78 325.046C218.254 325.046 217.008 325.97 216.56 327.678L218.856 328.294C219.01 327.664 219.374 327.412 219.78 327.412C220.368 327.412 220.676 327.79 220.676 328.322C220.676 329.428 219.29 330.688 216.826 332.886ZM227.727 335.168C229.617 335.168 231.171 333.614 231.171 331.71C231.171 329.82 229.743 328.574 227.853 328.574C227.643 328.574 227.433 328.602 227.223 328.644L227.349 327.566H230.499V325.2H225.515L224.913 330.562L226.887 331.038C227.055 330.814 227.363 330.632 227.727 330.632C228.357 330.632 228.805 331.122 228.805 331.71C228.805 332.312 228.357 332.802 227.727 332.802C227.167 332.802 226.775 332.48 226.635 332.06L224.367 332.746C224.815 334.146 226.145 335.168 227.727 335.168ZM232.856 332.018H238.358V329.638H232.856V332.018ZM241.437 335H243.929V325.2H241.941L239.337 326.432L240.107 328.462L241.437 327.86V335ZM249.277 335.168C252.091 335.168 253.379 332.578 253.379 330.1C253.379 327.622 252.091 325.046 249.277 325.046C246.477 325.046 245.189 327.622 245.189 330.1C245.189 332.578 246.477 335.168 249.277 335.168ZM247.681 330.1C247.681 328.672 248.185 327.538 249.277 327.538C250.383 327.538 250.887 328.672 250.887 330.1C250.887 331.542 250.383 332.676 249.277 332.676C248.185 332.676 247.681 331.542 247.681 330.1Z" fill="#424242"/>
<path d="M270.856 335H273.348V327.566H275.644V325.2H268.56V327.566H270.856V335ZM281.159 335.168C283.777 335.168 285.415 333.74 285.415 330.912V325.2H282.923V330.786C282.923 332.004 282.279 332.676 281.159 332.676C280.039 332.676 279.409 332.004 279.409 330.786V325.2H276.903V330.912C276.903 333.74 278.541 335.168 281.159 335.168ZM289.923 335.168C292.135 335.168 293.381 333.964 293.381 331.976C293.381 330.058 291.743 329.414 290.371 328.938C289.475 328.63 289.153 328.364 289.153 327.874C289.153 327.496 289.433 327.146 289.923 327.146C290.413 327.146 290.735 327.482 290.749 327.86L292.919 327.552C292.765 326.068 291.519 325.032 289.867 325.032C288.173 325.032 286.871 326.348 286.871 328C286.871 329.526 287.669 330.422 289.111 330.982C290.385 331.472 290.973 331.626 290.973 332.214C290.973 332.634 290.623 333.026 289.951 333.026C289.069 333.026 288.789 332.452 288.775 331.934L286.535 332.144C286.493 333.838 287.865 335.168 289.923 335.168Z" fill="#424242"/>
</svg>
