<svg width="842" height="842" viewBox="0 0 842 842" fill="none" xmlns="http://www.w3.org/2000/svg">
<rect width="842" height="842" fill="#DCB3AF"/>
<ellipse cx="451.347" cy="675.525" rx="172.347" ry="10.525" fill="#9B6E65"/>
<path d="M252.828 262.791C249.073 263.002 243.075 263.945 251.024 259.15C264.954 250.73 300.536 174.543 418.806 170.577C537.076 166.611 574.999 220.756 589.075 237.173C603.802 254.306 619.082 271.081 623.21 293.074C627.339 315.066 610.206 353.46 610.206 353.46C607.635 364.405 606.224 375.591 605.996 386.831C605.996 403.233 608.353 471.194 583.614 529.386C559.93 584.864 500.877 561.717 497.479 560.482C492.083 558.466 469.992 535.466 473.715 502.078C477.437 468.691 478.819 435.108 478.819 435.108C478.819 435.108 479.924 385.791 464.027 361.198C448.13 336.604 450.86 316.464 454.095 309.003C457.33 301.542 466.774 278.347 466.774 278.347C466.774 278.347 488.377 325.486 486.897 337.092C485.418 348.698 583.549 341.318 583.549 341.318C583.549 341.318 602.177 335.109 603.428 317.456C604.68 299.803 590.749 251.868 554.469 228.753C518.188 205.639 497.008 191.92 445.025 203.282C393.042 214.644 399.365 272.771 399.365 272.771C399.365 272.771 405.639 289.855 410.613 293.22C410.613 293.22 414.563 302.193 403.218 299.722C391.872 297.251 388.865 276.071 382.086 270.772C370.529 261.637 371.618 263.717 333.484 262.921C287.369 262.027 265.377 262.092 252.828 262.791Z" fill="white"/>
<path d="M466.514 278.656C466.514 278.656 437.564 239.221 437.385 234.377C437.206 229.534 431.794 209.589 458.63 207.915C485.467 206.24 508.012 206.972 534.101 218.724C560.19 230.476 564.823 236.458 564.823 236.458C564.823 236.458 593.692 257.719 603.054 305.476C603.054 305.476 608.045 322.869 597.235 332.735C597.235 332.735 590.733 339.026 583.597 341.285C583.597 341.285 526.202 344.975 515.88 343.496C515.88 343.496 499.316 342.813 495.106 341.741C490.896 340.668 488.1 340.538 486.979 337.774C486.979 337.774 484.508 321.91 482.005 315.895C479.306 309.475 468.676 281.63 466.514 278.656Z" fill="white"/>
<path d="M247.074 262.385C247.074 262.385 227.08 273.113 231.55 271.91C241.401 269.26 261.589 269.959 280.315 269.781L340.457 270.333C340.457 270.333 382.72 273.194 382.444 331.094C382.167 388.993 380.704 528.882 380.704 528.882C380.704 528.882 369.846 568.723 337.548 568.723C305.25 568.723 242.327 566.984 242.327 566.984C236.812 566.66 231.407 565.298 226.397 562.969C219.57 559.36 242.262 575.973 242.262 575.973C242.262 575.973 334.069 580.573 364.011 578.834C364.011 578.834 377.795 577.647 387.84 563.245C390.591 559.328 392.728 555.014 394.18 550.453C396.829 542.471 407.736 541.675 408.484 543.235C408.919 543.642 409.234 544.16 409.394 544.734C409.555 545.307 409.555 545.913 409.394 546.486C409.394 546.486 418.936 532.572 419.31 519.65C419.683 506.727 418.676 309.426 418.676 309.426C418.676 309.426 416.189 298.877 410.548 293.285C410.548 293.285 413.409 300.616 406.143 300.242C398.877 299.868 394.586 291.903 394.586 291.903C394.586 291.903 387.288 275.892 386.069 274.218C384.849 272.544 378.055 265.554 373.211 263.896C368.367 262.238 294.066 263.019 276.674 262.466C259.281 261.913 247.675 262.791 247.074 262.385Z" fill="#DCB3AF"/>
<path d="M231.453 271.698C231.453 271.698 197.155 288.23 195.676 318.61C194.197 348.99 193.433 522.852 193.433 522.852C193.433 522.852 195.351 546.34 226.349 563.294C226.349 563.294 234.005 568.544 255.933 568.008L332.769 569.373C332.769 569.373 366.449 575.046 381.241 528.834L382.98 331.045C382.98 331.045 385.435 276.412 340.539 270.333L280.396 269.78L253.332 269.667C253.332 269.667 234.948 269.797 231.453 271.698Z" fill="#9B6E65"/>
<path d="M207.217 329.484V509.507C207.217 509.507 208.063 533.109 236.801 532.848C265.54 532.588 322.236 532.848 322.236 532.848C322.236 532.848 342.978 530.134 343.449 510.368C343.92 490.602 342.522 329.484 342.522 329.484C342.522 329.484 339.271 312.449 319.766 311.897C300.26 311.344 229.942 311.897 229.942 311.897C229.942 311.897 208.615 314.904 207.217 329.484Z" fill="#DCB3AF"/>
<path d="M418.79 329.972C417.164 328.704 413.913 325.762 404.388 326.997C394.863 328.233 386.41 342.553 385.76 346.276C385.11 349.998 384.362 366.692 385.191 369.666C386.02 372.641 389.759 387.742 403.071 392.033C416.384 396.324 424.203 384.068 427.535 379.273C432.091 373.037 434.297 365.391 433.761 357.686C433.338 347.804 429.128 337.791 418.79 329.972Z" fill="#9B6E65"/>
<path d="M525.162 521.925C541.42 521.925 554.599 506.242 554.599 486.896C554.599 467.55 541.42 451.867 525.162 451.867C508.904 451.867 495.724 467.55 495.724 486.896C495.724 506.242 508.904 521.925 525.162 521.925Z" fill="#9B6E65"/>
<path d="M421.488 626.801C421.488 626.801 458.143 597.461 477.486 532.865C477.486 532.865 485.516 552.371 495.708 558.872C505.9 565.374 533.712 567.179 540.945 564.936C548.178 562.692 562.076 559.604 577.551 540.927C577.551 540.927 565.441 586.815 546.667 612.546C527.892 638.277 509.443 646.876 491.595 647.77C473.748 648.664 469.765 650.647 447.008 643.381C447.008 643.381 429.794 636.132 421.488 626.801Z" fill="#DCB3AF"/>
<path d="M525.779 571.128C520.204 567.877 499.934 581.938 509.134 590.634C521.927 595.478 538.442 578.703 525.779 571.128Z" fill="#9B6E65"/>
<path d="M505.526 607.458C497.057 603.427 478.299 615.585 487.499 624.314C497.675 628.752 513.653 611.294 505.526 607.458Z" fill="#9B6E65"/>
<path d="M480.802 637.838C473.292 634.116 449.576 635.709 458.516 643.462C467.473 647.412 486.962 640.91 480.802 637.838Z" fill="#9B6E65"/>
<path d="M421.163 625.729C423.179 627.761 447.886 657.344 502.047 645.446C555.396 633.742 575.048 543.463 575.048 543.463C580.671 535.565 585.056 526.855 588.052 517.634C592.148 503.834 601.316 473.242 602.096 455.183C602.876 437.124 605.493 427.81 605.574 390.164C605.574 390.164 604.355 376.477 610.142 353.46C610.142 353.46 613.393 411.831 612.353 434.344C611.312 456.857 611.182 488.31 598.634 533.905C586.085 579.5 572.626 612.562 544.619 637.318C516.612 662.074 480.916 670.088 470.562 671.762C460.207 673.437 437.922 679.337 376.934 668.966C315.946 658.596 275.39 614.497 275.39 614.497C275.39 614.497 251.853 589.74 242.198 575.973C242.198 575.973 338.621 579.988 355.982 578.963C373.342 577.939 380.266 573.047 387.516 563.651C387.516 563.651 392.766 555.199 393.173 551.915C393.173 551.915 395.968 541.821 406.404 542.244C416.84 542.666 397.464 569.081 397.464 569.081C397.464 569.081 392.652 597.039 421.163 625.729Z" fill="white"/>
<path d="M407.736 428.184C407.736 428.184 397.219 428.379 397.024 436.848C396.829 445.316 396.846 505.345 396.846 505.345C396.846 505.345 399.365 514.302 406.078 514.204C407.978 514.166 409.814 513.511 411.31 512.339C412.805 511.166 413.879 509.539 414.368 507.702V433.694C414.068 432.151 413.244 430.76 412.035 429.756C410.827 428.751 409.308 428.196 407.736 428.184V428.184Z" fill="#9B6E65"/>
<path d="M407.736 404.923H404.518V411.474H407.736V404.923Z" fill="#9B6E65"/>
<path d="M495.058 341.74C495.058 341.74 481.875 278.639 457.087 252.924C432.298 227.209 470.968 224.901 480.006 224.966C501.137 225.112 526.219 227.762 557.168 259.442C557.168 259.442 576.543 278.444 587.532 335.108C587.878 336.496 587.878 337.947 587.532 339.335C587.044 342.309 559.232 342.586 559.232 342.586C559.232 342.586 521.7 344.211 517.457 343.772C513.215 343.333 496.131 342.472 495.058 341.74Z" fill="#DCB3AF"/>
<path d="M333.387 262.612C286.931 262.889 279.112 263.181 252.828 262.791C249.073 262.791 243.075 263.945 251.024 259.15" fill="white"/>
<path d="M315 332.982V326.982H325V332.982H315H315ZM330 327.482C330.276 327.482 330.512 327.58 330.707 327.775C330.902 327.97 331 328.206 331 328.482V331.482C331 331.758 330.902 331.994 330.707 332.189C330.512 332.385 330.276 332.482 330 332.482V333.732C330 334.076 329.878 334.37 329.633 334.615C329.388 334.86 329.094 334.982 328.75 334.982H314.25C313.906 334.982 313.612 334.86 313.367 334.615C313.122 334.37 313 334.076 313 333.732V326.232C313 325.888 313.122 325.594 313.367 325.349C313.612 325.105 313.906 324.982 314.25 324.982H328.75C329.094 324.982 329.388 325.105 329.633 325.349C329.878 325.594 330 325.888 330 326.232V327.482V327.482ZM330 331.482V328.482H329V326.232C329 326.159 328.977 326.099 328.93 326.052C328.883 326.006 328.823 325.982 328.75 325.982H314.25C314.177 325.982 314.117 326.006 314.07 326.052C314.023 326.099 314 326.159 314 326.232V333.732C314 333.805 314.023 333.865 314.07 333.912C314.117 333.959 314.177 333.982 314.25 333.982H328.75C328.823 333.982 328.883 333.959 328.93 333.912C328.977 333.865 329 333.805 329 333.732V331.482H330V331.482Z" fill="#424242"/>
<path d="M263.952 415.432C271.188 415.432 274.5 408.772 274.5 402.4C274.5 396.028 271.188 389.404 263.952 389.404C256.752 389.404 253.44 396.028 253.44 402.4C253.44 408.772 256.752 415.432 263.952 415.432ZM259.848 402.4C259.848 398.728 261.144 395.812 263.952 395.812C266.796 395.812 268.092 398.728 268.092 402.4C268.092 406.108 266.796 409.024 263.952 409.024C261.144 409.024 259.848 406.108 259.848 402.4ZM284.329 406.612L278.641 415H285.409L293.689 402.868C294.553 401.644 295.129 399.808 295.129 398.26C295.129 393.364 291.133 389.404 286.273 389.404C281.377 389.404 277.381 393.364 277.381 398.26C277.381 402.472 280.369 405.784 284.329 406.612ZM283.465 398.26C283.465 396.712 284.725 395.488 286.273 395.488C287.785 395.488 289.045 396.712 289.045 398.26C289.045 399.808 287.785 401.032 286.273 401.032C284.725 401.032 283.465 399.808 283.465 398.26ZM262.116 462.432C266.796 462.432 270.612 458.904 270.612 454.224C270.612 451.596 269.352 449.652 267.408 448.464C268.776 447.312 269.64 445.692 269.64 443.676C269.64 439.356 266.508 436.404 261.972 436.404C258.156 436.404 255.24 439.032 254.628 442.74L259.776 443.46C260.028 442.524 260.748 441.84 261.972 441.84C263.268 441.84 264.204 442.812 264.204 444C264.204 445.332 263.304 446.16 261.792 446.16H259.668V451.452H261.792C263.484 451.452 264.528 452.46 264.528 453.9C264.528 455.232 263.628 456.348 262.116 456.348C260.496 456.348 259.524 455.412 259.38 454.224L253.44 456.024C254.304 459.804 257.724 462.432 262.116 462.432ZM283.64 462.432C290.876 462.432 294.188 455.772 294.188 449.4C294.188 443.028 290.876 436.404 283.64 436.404C276.439 436.404 273.128 443.028 273.128 449.4C273.128 455.772 276.439 462.432 283.64 462.432ZM279.536 449.4C279.536 445.728 280.832 442.812 283.64 442.812C286.484 442.812 287.78 445.728 287.78 449.4C287.78 453.108 286.484 456.024 283.64 456.024C280.832 456.024 279.536 453.108 279.536 449.4Z" fill="#424242"/>
<path d="M218.826 332.886V335H225.378V332.76H222.354C223.95 331.136 225.042 330.17 225.042 328.238C225.042 326.25 223.712 325.046 221.78 325.046C220.254 325.046 219.008 325.97 218.56 327.678L220.856 328.294C221.01 327.664 221.374 327.412 221.78 327.412C222.368 327.412 222.676 327.79 222.676 328.322C222.676 329.428 221.29 330.688 218.826 332.886ZM229.727 335.168C231.617 335.168 233.171 333.614 233.171 331.71C233.171 329.82 231.743 328.574 229.853 328.574C229.643 328.574 229.433 328.602 229.223 328.644L229.349 327.566H232.499V325.2H227.515L226.913 330.562L228.887 331.038C229.055 330.814 229.363 330.632 229.727 330.632C230.357 330.632 230.805 331.122 230.805 331.71C230.805 332.312 230.357 332.802 229.727 332.802C229.167 332.802 228.775 332.48 228.635 332.06L226.367 332.746C226.815 334.146 228.145 335.168 229.727 335.168ZM234.856 332.018H240.358V329.638H234.856V332.018ZM243.437 335H245.929V325.2H243.941L241.337 326.432L242.107 328.462L243.437 327.86V335ZM251.277 335.168C254.091 335.168 255.379 332.578 255.379 330.1C255.379 327.622 254.091 325.046 251.277 325.046C248.477 325.046 247.189 327.622 247.189 330.1C247.189 332.578 248.477 335.168 251.277 335.168ZM249.681 330.1C249.681 328.672 250.185 327.538 251.277 327.538C252.383 327.538 252.887 328.672 252.887 330.1C252.887 331.542 252.383 332.676 251.277 332.676C250.185 332.676 249.681 331.542 249.681 330.1Z" fill="#424242"/>
<path d="M272.856 335H275.348V327.566H277.644V325.2H270.56V327.566H272.856V335ZM283.159 335.168C285.777 335.168 287.415 333.74 287.415 330.912V325.2H284.923V330.786C284.923 332.004 284.279 332.676 283.159 332.676C282.039 332.676 281.409 332.004 281.409 330.786V325.2H278.903V330.912C278.903 333.74 280.541 335.168 283.159 335.168ZM291.923 335.168C294.135 335.168 295.381 333.964 295.381 331.976C295.381 330.058 293.743 329.414 292.371 328.938C291.475 328.63 291.153 328.364 291.153 327.874C291.153 327.496 291.433 327.146 291.923 327.146C292.413 327.146 292.735 327.482 292.749 327.86L294.919 327.552C294.765 326.068 293.519 325.032 291.867 325.032C290.173 325.032 288.871 326.348 288.871 328C288.871 329.526 289.669 330.422 291.111 330.982C292.385 331.472 292.973 331.626 292.973 332.214C292.973 332.634 292.623 333.026 291.951 333.026C291.069 333.026 290.789 332.452 290.775 331.934L288.535 332.144C288.493 333.838 289.865 335.168 291.923 335.168Z" fill="#424242"/>
</svg>
