<svg width="57" height="46" viewBox="0 0 57 46" fill="none" xmlns="http://www.w3.org/2000/svg">
<path d="M57 5.51111C54.8578 6.43244 52.5923 7.04149 50.274 7.31933C52.7198 5.87083 54.5526 3.59209 55.4325 0.905805C53.1341 2.26215 50.6182 3.21777 47.994 3.73115C46.24 1.84543 43.9042 0.590204 41.353 0.162321C38.8018 -0.265563 36.1794 0.158102 33.8973 1.36687C31.6152 2.57564 29.8023 4.50114 28.7429 6.84138C27.6836 9.18163 27.4378 11.8042 28.044 14.2979C23.3969 14.0649 18.8512 12.8653 14.7022 10.7772C10.5532 8.68897 6.89371 5.75887 3.9615 2.17721C2.93304 3.95765 2.39263 5.97396 2.394 8.02566C2.39035 9.93102 2.86202 11.8077 3.767 13.4886C4.67199 15.1696 5.9822 16.6026 7.581 17.6601C5.72273 17.6099 3.90417 17.1156 2.28 16.2191V16.3604C2.29393 19.0301 3.23758 21.613 4.95135 23.6723C6.66511 25.7316 9.04378 27.1409 11.685 27.6618C10.6683 27.9685 9.61269 28.1302 8.55 28.1421C7.81439 28.1336 7.0806 28.0674 6.3555 27.9443C7.10764 30.2408 8.56317 32.2477 10.5196 33.6859C12.476 35.124 14.8359 35.9218 17.271 35.9683C13.159 39.1758 8.08227 40.9263 2.85 40.9409C1.89735 40.944 0.945446 40.8874 0 40.7714C5.34212 44.1907 11.5676 46.0059 17.9265 45.9982C22.3146 46.0434 26.6678 45.2213 30.7319 43.58C34.7959 41.9386 38.4893 39.5109 41.5963 36.4387C44.7033 33.3664 47.1617 29.7113 48.8278 25.6866C50.4939 21.6619 51.3343 17.3485 51.3 12.9983C51.3 12.518 51.3 12.0094 51.3 11.5008C53.5364 9.84747 55.4652 7.82061 57 5.51111Z" fill="white"/>
</svg>
